<?xml version="1.0" encoding="UTF-8"?>
<!DOCTYPE svg PUBLIC "-//W3C//DTD SVG 1.1//EN" "http://www.w3.org/Graphics/SVG/1.1/DTD/svg11.dtd">
<!-- Creator: CorelDRAW -->
<svg xmlns="http://www.w3.org/2000/svg" xml:space="preserve" width="192px" height="192px" version="1.1" style="shape-rendering:geometricPrecision; text-rendering:geometricPrecision; image-rendering:optimizeQuality; fill-rule:evenodd; clip-rule:evenodd"
viewBox="0 0 192 192"
 xmlns:xlink="http://www.w3.org/1999/xlink"
 xmlns:xodm="http://www.corel.com/coreldraw/odm/2003">
 <defs>
  <style type="text/css">
   <![CDATA[
    .str0 {stroke:#010A2E;stroke-width:0.9;stroke-miterlimit:22.9256}
    .fil10 {fill:none}
    .fil0 {fill:#848688}
    .fil1 {fill:#010A2E}
    .fil5 {fill:#010A2E}
    .fil2 {fill:#242C50}
    .fil7 {fill:darkgray}
    .fil4 {fill:#AEB1BF}
    .fil3 {fill:#FEFEFE}
    .fil9 {fill:#FEFEFE}
    .fil6 {fill:white}
    .fil8 {fill:#010A2E;fill-rule:nonzero}
   ]]>
  </style>
   <clipPath id="id0">
    <path d="M0 0l192 0 0 192 -192 0 0 -192z"/>
   </clipPath>
 </defs>
 <g id="Capa_x0020_1">
  <metadata id="CorelCorpID_0Corel-Layer"/>
  <polygon class="fil0" points="0,0 192,0 192,192 0,192 "/>
  <g style="clip-path:url(#id0)">
   <g id="_2177499371744">
    <polygon id="_1" class="fil1" points="0,191.9 192,191.9 192,-0.1 0,-0.1 "/>
    <path class="fil2" d="M0 192.1l192 -0.25c-19.93,-35.88 -52.75,-59 -96.19,-59 -44.78,0.5 -75.87,23.51 -95.81,59.25z"/>
    <path class="fil3" d="M82.1 174.48l0.01 -5.59 4.16 0c0.78,0.18 3.52,5.54 4.3,5.7l4.89 0c-0.14,-0.35 -3.89,-5.91 -4.46,-6.49 0.57,-0.62 2.03,-0.74 3.34,-3.09 1.56,-2.81 0.95,-7.35 -2.08,-9.36 -1.14,-0.76 -3.28,-1.68 -5.02,-1.52l-9.87 0.04 0 20.31 0.18 0 4.55 0z"/>
    <path class="fil3" d="M117.33 174.59l4.73 0c0.57,-0.8 1.45,-3.97 2.06,-4.39l9.13 0c0.5,0.31 0.84,1.59 1.08,2.17 0.22,0.53 0.68,1.82 0.99,2.22l4.86 0c-0.01,-0.31 -8.66,-19.93 -9.13,-20.54l-4.6 0c-0.49,0.63 -9.11,20.19 -9.12,20.54z"/>
    <path class="fil3" d="M52.24 174.59l4.81 0 1.85 -4.38 9.53 -0.01 1.75 4.36 5 0.03c-0.2,-0.78 -6.26,-14.18 -6.84,-15.43l-2.02 -4.54c-0.24,-0.48 -0.06,-0.34 -0.45,-0.57l-4.61 0c-0.44,1.73 -8.9,19.56 -9.02,20.54z"/>
    <path class="fil3" d="M117.15 171.15c-1.04,-0.71 -2.06,-2.13 -3.16,-2.71 -1.17,1.8 -4.45,3.08 -7.42,2.04 -5.66,-1.99 -5.45,-10.53 -0.02,-12.32 4.73,-1.55 6.99,1.67 7.65,1.99 0.98,-0.98 2.01,-1.81 2.94,-2.81 -0.62,-1.25 -3.1,-2.72 -5.18,-3.27 -2.3,-0.61 -5.29,-0.51 -7.44,0.31 -9.53,3.63 -9.08,16.67 0.01,19.88 2.2,0.78 5.06,0.91 7.41,0.3 2.04,-0.53 4.64,-2.07 5.21,-3.41z"/>
    <path class="fil2" d="M82.11 165.06l3.89 0c2.49,0 4.3,-1.07 4.3,-3.55 0,-2.45 -1.7,-3.56 -4.16,-3.56l-4.03 0 0 7.11z"/>
    <path class="fil2" d="M125.49 166.52l6.38 0.02c-0.28,-1.13 -1.09,-2.71 -1.55,-3.85l-1.63 -3.75 -3.2 7.58z"/>
    <polygon class="fil2" points="60.44,166.52 66.81,166.54 63.69,158.86 "/>
    <path class="fil4" d="M82.1 174.48l-4.55 0 -0.18 0 0 -20.31 9.87 -0.04c-0.03,-0.02 -0.08,-0.08 -0.09,-0.05l-9.82 -0.04c-0.16,0.66 -0.16,19.91 0,20.56l4.38 0.03c0.69,0 0.16,0.03 0.39,-0.15z"/>
    <path class="fil5" d="M61.27 12.3c-5.06,0 -4.31,0.08 -4.31,5.09 0,3.14 -0.03,6.29 0,9.42 -2.73,0.38 -8.01,0.05 -11.03,0.06 -5.99,0.01 -11.04,3.13 -13.83,8.17 -1.57,2.84 -1.88,5.44 -1.88,9.22 0,14.73 0,29.45 0,44.18 0,5.35 -0.64,17 1,21.15 1.92,4.9 6.11,8.97 12.16,9.91 4.11,0.64 36.33,-0.16 44.1,0.22l0 10.07c-2.36,0.08 -10.45,-0.32 -11.98,0.09 -1.64,0.43 -1.14,3.19 -1.14,4.88 0,8.78 -0.72,8.77 3.39,8.77l36.44 0c2.54,0 3.57,0.31 3.56,-2.5 -0.01,-2.03 0,-4.07 0,-6.1 0,-1.52 0.54,-4.48 -1.01,-5.01 -1.05,-0.36 -10.12,-0.06 -12.1,-0.13l-0.01 -10.11c10.69,0.19 22.15,0.01 32.96,0.01 3.21,0 7.97,0.28 11,-0.16 6.06,-0.89 10.35,-5.06 12.25,-9.82 1.28,-3.19 1.05,-6.38 1.05,-10.06l0 -55.22c0,-6.46 -1.6,-11.5 -7.1,-15.05 -5.53,-3.57 -12.28,-2.41 -19.58,-2.51 -0.34,-1.98 -0.06,-7.02 -0.06,-9.31 0,-1.02 0.18,-3.71 -0.21,-4.43 -0.62,-1.14 -2.43,-0.83 -3.94,-0.83 -25.14,0 -44.89,0 -69.73,0z"/>
    <path class="fil6" d="M135.15 30.07l0 4.93c6.32,0.68 13.56,-1.42 16.78,2.18 1.95,2.17 1.77,4.21 1.77,7.74l0 57.37c0,7.97 -2.48,9.23 -9.84,9.23l-95.45 0c-3.87,0 -8.19,0.15 -9.69,-4.65 -0.58,-1.85 -0.31,-11.65 -0.31,-13.98l0 -47.8c0,-3.49 -0.23,-5.63 1.68,-7.83 3.24,-3.74 10.52,-1.54 16.85,-2.26l0.02 -4.92c-2.94,-0.31 -7.58,-0.06 -10.69,-0.05 -3.37,0.01 -6.11,1.07 -8.11,2.66 -5.73,4.54 -4.77,10.13 -4.77,16.85l0 53.9c0,6.05 3.34,11.02 9.01,12.61 2.77,0.78 7.37,0.48 10.46,0.48 28.74,0 57.48,0 86.22,0 6.67,0 12.57,0.88 16.95,-4.7 1.56,-1.99 2.68,-4.73 2.69,-8.06l-0.01 -54.07c0,-6.5 0.99,-12.49 -4.66,-16.94 -2.04,-1.61 -4.61,-2.71 -8.05,-2.73 -3.23,-0.02 -7.76,-0.24 -10.85,0.04z"/>
    <path class="fil2" d="M56.91 108.32l0.05 -70.09 -12.41 0.03c-4,0.61 -2.98,5.62 -2.98,9.63l0 50.61c0,4.17 -0.95,9.03 2.81,9.77 1.55,0.31 10.57,0.18 12.53,0.05z"/>
    <path class="fil2" d="M135.15 108.31l12.41 -0.01c3.96,-0.59 2.98,-5.71 2.98,-9.64l0 -50.61c0,-3.79 1.01,-9 -2.84,-9.76 -1.66,-0.33 -10.35,-0.16 -12.5,-0.06l-0.05 70.08z"/>
    <polygon class="fil6" points="77.52,140.37 114.55,140.37 114.58,132.96 77.57,132.96 "/>
    <path class="fil7" d="M90.61 129.82l10.89 0.06c0.07,-1.49 0.18,-9.3 -0.09,-10.21l-10.72 -0.02c-0.25,0.92 -0.17,8.81 -0.08,10.17z"/>
    <polygon class="fil6" points="90.75,129.73 101.34,129.72 101.35,119.85 90.75,119.87 "/>
    <polygon class="fil3" points="59.85,16.8 132.15,16.8 132.15,108.32 59.85,108.32 "/>
    <g>
     <path class="fil8" d="M121.18 46.12l-51.31 0 0 -1.89 51.31 0 0 0 0 1.89zm3.6 1.32l-2.13 0 0 0 0 -0.07 -0.01 -0.07 -0.01 -0.06 -0.01 -0.07 -0.02 -0.06 -0.02 -0.06 -0.02 -0.07 -0.02 -0.05 -0.03 -0.06 -0.04 -0.06 -0.03 -0.05 -0.04 -0.05 -0.04 -0.06 -0.05 -0.05 -0.04 -0.05 -0.05 -0.04 -0.06 -0.05 -0.05 -0.04 -0.06 -0.04 -0.05 -0.03 -0.06 -0.04 -0.07 -0.03 -0.06 -0.03 -0.06 -0.03 -0.07 -0.02 -0.07 -0.02 -0.07 -0.02 -0.06 -0.01 -0.08 -0.01 -0.07 -0.01 -0.07 -0.01 -0.08 0 0 -1.89 0.19 0 0.18 0.02 0.18 0.02 0.17 0.02 0.18 0.04 0.17 0.05 0.17 0.05 0.16 0.05 0.16 0.07 0.15 0.07 0.15 0.08 0.15 0.08 0.14 0.09 0.14 0.09 0.13 0.1 0.12 0.11 0.12 0.11 0.11 0.12 0.11 0.12 0.1 0.12 0.09 0.13 0.09 0.14 0.08 0.14 0.07 0.14 0.07 0.15 0.05 0.14 0.05 0.16 0.04 0.15 0.04 0.16 0.02 0.16 0.01 0.16 0.01 0.17 0 0zm-2.13 7.46l0 -7.46 2.13 0 0 7.46 0 0 -2.13 0zm-1.47 3.2l0 -1.89 0 0 0.08 -0.01 0.07 0 0.07 -0.01 0.08 -0.01 0.06 -0.02 0.07 -0.01 0.07 -0.02 0.07 -0.03 0.06 -0.02 0.07 -0.03 0.06 -0.03 0.06 -0.04 0.06 -0.03 0.05 -0.04 0.05 -0.04 0.06 -0.05 0.05 -0.05 0.04 -0.04 0.05 -0.05 0.04 -0.05 0.04 -0.06 0.03 -0.05 0.04 -0.06 0.03 -0.06 0.02 -0.05 0.02 -0.07 0.02 -0.06 0.02 -0.06 0.01 -0.07 0.01 -0.06 0.01 -0.06 0 -0.07 2.13 0 -0.01 0.16 -0.01 0.16 -0.03 0.16 -0.03 0.16 -0.04 0.15 -0.05 0.16 -0.05 0.14 -0.07 0.15 -0.07 0.15 -0.08 0.13 -0.09 0.13 -0.09 0.13 -0.1 0.13 -0.11 0.12 -0.11 0.12 -0.12 0.11 -0.12 0.1 -0.13 0.1 -0.14 0.1 -0.14 0.09 -0.15 0.08 -0.15 0.08 -0.15 0.07 -0.16 0.06 -0.16 0.06 -0.17 0.05 -0.17 0.05 -0.18 0.03 -0.17 0.03 -0.18 0.02 -0.18 0.01 -0.19 0.01 0 0zm-51.31 -1.89l51.31 0 0 1.89 -51.31 0 0 0 0 -1.89zm-3.6 -1.31l2.13 0 0 0 0 0.07 0 0.06 0.01 0.06 0.02 0.07 0.01 0.07 0.02 0.06 0.02 0.05 0.03 0.06 0.03 0.06 0.03 0.06 0.04 0.06 0.04 0.05 0.04 0.05 0.04 0.05 0.05 0.04 0.05 0.05 0.05 0.04 0.05 0.05 0.06 0.04 0.06 0.03 0.06 0.04 0.06 0.03 0.06 0.03 0.07 0.02 0.06 0.03 0.07 0.02 0.07 0.01 0.07 0.02 0.07 0.01 0.08 0.01 0.07 0 0.08 0.01 0 1.89 -0.19 -0.01 -0.18 -0.01 -0.18 -0.02 -0.18 -0.03 -0.17 -0.03 -0.17 -0.05 -0.17 -0.05 -0.17 -0.06 -0.15 -0.06 -0.16 -0.07 -0.15 -0.08 -0.15 -0.08 -0.14 -0.09 -0.13 -0.1 -0.13 -0.1 -0.13 -0.1 -0.12 -0.11 -0.11 -0.12 -0.1 -0.12 -0.11 -0.13 -0.09 -0.13 -0.08 -0.13 -0.08 -0.14 -0.07 -0.14 -0.07 -0.14 -0.06 -0.16 -0.05 -0.15 -0.04 -0.15 -0.03 -0.16 -0.02 -0.16 -0.01 -0.16 -0.01 -0.16 0 0zm2.13 -7.46l0 7.46 -2.13 0 0 -7.46 0 0 2.13 0zm1.47 -3.21l0 1.89 0 0 -0.08 0 -0.07 0.01 -0.08 0.01 -0.07 0.01 -0.07 0.01 -0.07 0.02 -0.07 0.02 -0.06 0.02 -0.07 0.03 -0.06 0.03 -0.06 0.03 -0.06 0.04 -0.06 0.03 -0.06 0.04 -0.05 0.05 -0.05 0.04 -0.05 0.04 -0.05 0.05 -0.04 0.05 -0.04 0.05 -0.04 0.06 -0.04 0.05 -0.03 0.06 -0.03 0.06 -0.03 0.06 -0.02 0.05 -0.02 0.06 -0.01 0.07 -0.02 0.07 -0.01 0.06 0 0.07 0 0.07 -2.13 0 0.01 -0.17 0.01 -0.16 0.02 -0.16 0.03 -0.16 0.04 -0.15 0.05 -0.15 0.06 -0.16 0.07 -0.14 0.06 -0.14 0.08 -0.14 0.09 -0.14 0.09 -0.12 0.1 -0.13 0.11 -0.12 0.11 -0.12 0.12 -0.11 0.13 -0.11 0.13 -0.1 0.13 -0.09 0.14 -0.09 0.15 -0.08 0.15 -0.08 0.16 -0.07 0.15 -0.07 0.17 -0.05 0.17 -0.06 0.17 -0.04 0.17 -0.04 0.18 -0.02 0.18 -0.02 0.18 -0.02 0.19 0 0 0z"/>
    </g>
    <g>
     <path class="fil8" d="M121.18 83.23l-51.31 0 0 -2.55 51.31 0 0 0 0 2.55zm3.6 1.77l-2.13 0 0 0 0 -0.1 -0.01 -0.08 -0.01 -0.09 -0.01 -0.09 -0.02 -0.08 -0.02 -0.08 -0.02 -0.09 -0.02 -0.07 -0.03 -0.08 -0.04 -0.08 -0.03 -0.07 -0.04 -0.08 -0.04 -0.06 -0.05 -0.07 -0.04 -0.07 -0.05 -0.06 -0.06 -0.06 -0.05 -0.05 -0.06 -0.06 -0.05 -0.05 -0.06 -0.04 -0.07 -0.05 -0.06 -0.04 -0.06 -0.03 -0.07 -0.03 -0.06 -0.03 -0.08 -0.02 -0.07 -0.02 -0.07 -0.02 -0.07 -0.01 -0.07 -0.01 -0.08 0 0 -2.55 0.18 0.01 0.19 0.01 0.18 0.03 0.18 0.04 0.17 0.05 0.17 0.06 0.17 0.06 0.16 0.08 0.16 0.09 0.15 0.1 0.15 0.1 0.15 0.11 0.14 0.12 0.14 0.13 0.13 0.14 0.12 0.14 0.12 0.15 0.11 0.16 0.11 0.16 0.1 0.17 0.09 0.17 0.09 0.19 0.08 0.18 0.07 0.19 0.07 0.2 0.05 0.2 0.05 0.2 0.04 0.21 0.03 0.21 0.03 0.22 0.01 0.22 0.01 0.22 0 0zm-2.13 9.86l0 -9.86 2.13 0 0 9.86 0 0 -2.13 0zm-1.47 4.32l0 -2.55 0 0 0.08 0 0.07 -0.01 0.07 -0.01 0.07 -0.01 0.07 -0.02 0.08 -0.03 0.06 -0.03 0.07 -0.03 0.06 -0.03 0.06 -0.04 0.07 -0.05 0.06 -0.04 0.05 -0.05 0.06 -0.05 0.05 -0.06 0.06 -0.06 0.05 -0.06 0.04 -0.07 0.05 -0.07 0.04 -0.06 0.04 -0.08 0.03 -0.07 0.04 -0.08 0.03 -0.08 0.02 -0.07 0.02 -0.09 0.02 -0.08 0.02 -0.08 0.01 -0.09 0.01 -0.09 0.01 -0.08 0 -0.1 2.13 0 -0.01 0.22 -0.01 0.22 -0.03 0.22 -0.03 0.21 -0.04 0.21 -0.05 0.21 -0.05 0.19 -0.07 0.2 -0.07 0.19 -0.08 0.19 -0.09 0.18 -0.09 0.17 -0.1 0.18 -0.11 0.16 -0.11 0.15 -0.12 0.15 -0.12 0.14 -0.13 0.14 -0.14 0.13 -0.14 0.12 -0.15 0.11 -0.15 0.11 -0.15 0.09 -0.16 0.09 -0.16 0.08 -0.17 0.07 -0.17 0.05 -0.17 0.05 -0.18 0.04 -0.18 0.03 -0.19 0.02 -0.18 0 0 0zm-51.31 -2.55l51.31 0 0 2.55 -51.31 0 0 0 0 -2.55zm-3.6 -1.77l2.13 0 0 0 0 0.1 0 0.08 0.01 0.09 0.02 0.09 0.01 0.09 0.02 0.08 0.02 0.07 0.03 0.08 0.03 0.09 0.03 0.07 0.04 0.08 0.04 0.07 0.04 0.06 0.04 0.07 0.05 0.07 0.05 0.06 0.05 0.06 0.05 0.06 0.06 0.05 0.06 0.05 0.06 0.04 0.06 0.05 0.06 0.04 0.07 0.03 0.06 0.03 0.07 0.03 0.07 0.03 0.07 0.02 0.07 0.01 0.08 0.01 0.07 0.01 0.08 0 0 2.55 -0.19 0 -0.18 -0.02 -0.18 -0.03 -0.18 -0.04 -0.17 -0.05 -0.17 -0.05 -0.17 -0.07 -0.17 -0.08 -0.16 -0.09 -0.15 -0.1 -0.15 -0.1 -0.15 -0.11 -0.14 -0.12 -0.13 -0.13 -0.13 -0.13 -0.13 -0.15 -0.12 -0.15 -0.11 -0.15 -0.1 -0.16 -0.11 -0.18 -0.09 -0.18 -0.08 -0.17 -0.09 -0.19 -0.06 -0.19 -0.07 -0.19 -0.06 -0.21 -0.05 -0.21 -0.04 -0.2 -0.03 -0.21 -0.02 -0.22 -0.01 -0.22 -0.01 -0.22 0 0zm2.13 -9.86l0 9.86 -2.13 0 0 -9.86 0 0 2.13 0zm1.47 -4.32l0 2.55 0 0 -0.08 0 -0.07 0.01 -0.08 0.01 -0.07 0.02 -0.07 0.02 -0.07 0.02 -0.07 0.03 -0.06 0.03 -0.07 0.03 -0.06 0.04 -0.06 0.05 -0.06 0.04 -0.06 0.05 -0.06 0.06 -0.05 0.05 -0.05 0.06 -0.05 0.06 -0.05 0.07 -0.04 0.07 -0.04 0.06 -0.04 0.07 -0.04 0.08 -0.03 0.08 -0.03 0.08 -0.03 0.08 -0.02 0.07 -0.02 0.08 -0.01 0.09 -0.02 0.09 -0.01 0.09 0 0.08 0 0.1 -2.13 0 0.01 -0.22 0.01 -0.22 0.02 -0.22 0.03 -0.21 0.04 -0.2 0.05 -0.21 0.06 -0.21 0.07 -0.19 0.06 -0.19 0.09 -0.18 0.08 -0.18 0.09 -0.18 0.11 -0.17 0.1 -0.16 0.11 -0.16 0.12 -0.15 0.13 -0.14 0.13 -0.14 0.13 -0.13 0.14 -0.12 0.15 -0.11 0.15 -0.1 0.15 -0.1 0.16 -0.09 0.17 -0.08 0.17 -0.06 0.17 -0.06 0.17 -0.05 0.18 -0.04 0.18 -0.03 0.18 -0.01 0.19 -0.01 0 0z"/>
    </g>
    <g>
     <path class="fil8" d="M121.18 25.54l-51.31 0 0 -1.89 51.31 0 0 0 0 1.89zm3.6 1.31l-2.13 0 0 0 0 -0.07 -0.01 -0.06 -0.01 -0.07 -0.01 -0.06 -0.02 -0.07 -0.02 -0.06 -0.02 -0.06 -0.02 -0.06 -0.03 -0.05 -0.04 -0.06 -0.03 -0.06 -0.04 -0.05 -0.04 -0.05 -0.05 -0.06 -0.04 -0.04 -0.05 -0.05 -0.06 -0.04 -0.05 -0.04 -0.06 -0.04 -0.05 -0.04 -0.06 -0.03 -0.07 -0.04 -0.06 -0.02 -0.06 -0.03 -0.07 -0.02 -0.07 -0.02 -0.07 -0.02 -0.06 -0.02 -0.08 -0.01 -0.07 -0.01 -0.07 0 -0.08 0 0 -1.89 0.19 0 0.18 0.01 0.18 0.02 0.17 0.03 0.18 0.04 0.17 0.04 0.17 0.05 0.16 0.06 0.16 0.06 0.15 0.07 0.15 0.08 0.15 0.08 0.14 0.1 0.14 0.09 0.13 0.1 0.12 0.11 0.12 0.11 0.11 0.11 0.11 0.13 0.1 0.12 0.09 0.13 0.09 0.14 0.08 0.13 0.07 0.14 0.07 0.15 0.05 0.15 0.05 0.15 0.04 0.16 0.04 0.15 0.02 0.17 0.01 0.16 0.01 0.16 0 0zm-2.13 11.29l0 -11.29 2.13 0 0 11.29 0 0 -2.13 0zm-1.47 3.2l0 -1.89 0 0 0.08 0 0.07 -0.01 0.07 0 0.08 -0.02 0.06 -0.01 0.07 -0.02 0.07 -0.02 0.07 -0.02 0.06 -0.03 0.07 -0.03 0.06 -0.03 0.06 -0.03 0.06 -0.04 0.05 -0.04 0.05 -0.04 0.06 -0.05 0.05 -0.04 0.04 -0.04 0.05 -0.06 0.04 -0.05 0.04 -0.05 0.03 -0.06 0.04 -0.06 0.03 -0.05 0.02 -0.06 0.02 -0.06 0.02 -0.06 0.02 -0.06 0.01 -0.07 0.01 -0.06 0.01 -0.07 0 -0.07 2.13 0 -0.01 0.17 -0.01 0.16 -0.03 0.16 -0.03 0.16 -0.04 0.15 -0.05 0.16 -0.05 0.14 -0.07 0.15 -0.07 0.14 -0.08 0.14 -0.09 0.13 -0.09 0.13 -0.1 0.13 -0.11 0.12 -0.11 0.11 -0.12 0.12 -0.12 0.1 -0.13 0.1 -0.14 0.1 -0.14 0.08 -0.15 0.09 -0.15 0.08 -0.15 0.06 -0.16 0.07 -0.17 0.06 -0.16 0.05 -0.17 0.04 -0.18 0.04 -0.17 0.03 -0.18 0.02 -0.18 0.01 -0.19 0 0 0zm-51.31 -1.89l51.31 0 0 1.89 -51.31 0 0 0 0 -1.89zm-3.6 -1.31l2.13 0 0 0 0 0.07 0 0.07 0.01 0.06 0.02 0.07 0.01 0.06 0.02 0.06 0.03 0.06 0.02 0.06 0.03 0.05 0.03 0.06 0.04 0.06 0.04 0.05 0.04 0.05 0.05 0.06 0.04 0.04 0.05 0.04 0.05 0.05 0.06 0.04 0.05 0.04 0.06 0.04 0.06 0.03 0.06 0.03 0.07 0.03 0.06 0.03 0.06 0.02 0.07 0.02 0.07 0.02 0.07 0.01 0.07 0.02 0.08 0 0.07 0.01 0.08 0 0 1.89 -0.19 0 -0.18 -0.01 -0.18 -0.02 -0.18 -0.03 -0.17 -0.04 -0.17 -0.04 -0.17 -0.05 -0.17 -0.06 -0.15 -0.07 -0.15 -0.06 -0.16 -0.08 -0.14 -0.09 -0.14 -0.08 -0.14 -0.1 -0.13 -0.1 -0.12 -0.1 -0.12 -0.12 -0.12 -0.11 -0.1 -0.12 -0.1 -0.13 -0.1 -0.13 -0.08 -0.13 -0.08 -0.14 -0.07 -0.14 -0.07 -0.15 -0.06 -0.14 -0.05 -0.16 -0.04 -0.15 -0.03 -0.16 -0.02 -0.16 -0.01 -0.16 -0.01 -0.17 0 0zm2.13 -11.29l0 11.29 -2.13 0 0 -11.29 0 0 2.13 0zm1.47 -3.2l0 1.89 0 0 -0.08 0 -0.07 0 -0.08 0.01 -0.07 0.01 -0.07 0.02 -0.07 0.02 -0.07 0.02 -0.06 0.02 -0.07 0.03 -0.06 0.02 -0.06 0.04 -0.06 0.03 -0.06 0.04 -0.06 0.04 -0.05 0.04 -0.05 0.04 -0.05 0.05 -0.05 0.04 -0.04 0.06 -0.04 0.05 -0.04 0.05 -0.04 0.06 -0.03 0.05 -0.03 0.06 -0.03 0.06 -0.02 0.06 -0.02 0.06 -0.01 0.07 -0.02 0.06 -0.01 0.07 0 0.06 0 0.07 -2.13 0 0.01 -0.16 0.01 -0.16 0.02 -0.17 0.03 -0.15 0.04 -0.15 0.05 -0.16 0.06 -0.15 0.07 -0.15 0.06 -0.14 0.08 -0.13 0.09 -0.14 0.09 -0.13 0.1 -0.12 0.11 -0.13 0.11 -0.11 0.12 -0.11 0.13 -0.11 0.13 -0.1 0.13 -0.09 0.14 -0.1 0.15 -0.08 0.15 -0.07 0.16 -0.08 0.15 -0.06 0.17 -0.06 0.17 -0.05 0.17 -0.04 0.17 -0.04 0.18 -0.03 0.18 -0.02 0.18 -0.01 0.19 0 0 0z"/>
    </g>
    <g>
     <polygon class="fil8" points="97.1,35.08 97.1,40.4 94.9,40.4 94.9,35.08 "/>
    </g>
    <g>
     <polygon class="fil8" points="103.68,36.15 88.32,36.15 88.32,34 103.68,34 "/>
    </g>
    <path class="fil8 str0" d="M98.5 30.87c0,0.2 -0.04,0.41 -0.14,0.64 -0.1,0.23 -0.25,0.46 -0.46,0.68 -0.21,0.22 -0.48,0.4 -0.8,0.54 -0.33,0.14 -0.71,0.21 -1.14,0.21 -0.33,0 -0.62,-0.03 -0.89,-0.1 -0.27,-0.06 -0.51,-0.16 -0.73,-0.29 -0.22,-0.13 -0.42,-0.3 -0.61,-0.51 -0.16,-0.2 -0.3,-0.42 -0.42,-0.66 -0.11,-0.24 -0.2,-0.5 -0.26,-0.77 -0.06,-0.28 -0.08,-0.57 -0.08,-0.88 0,-0.5 0.07,-0.94 0.21,-1.34 0.15,-0.4 0.36,-0.73 0.63,-1.01 0.27,-0.29 0.59,-0.5 0.95,-0.65 0.37,-0.14 0.76,-0.22 1.17,-0.22 0.5,0 0.95,0.1 1.34,0.3 0.39,0.2 0.69,0.45 0.9,0.75 0.21,0.29 0.32,0.57 0.32,0.83 0,0.15 -0.05,0.27 -0.15,0.39 -0.11,0.11 -0.23,0.16 -0.37,0.16 -0.16,0 -0.29,-0.04 -0.37,-0.11 -0.08,-0.08 -0.17,-0.21 -0.26,-0.4 -0.17,-0.31 -0.36,-0.54 -0.58,-0.69 -0.23,-0.15 -0.5,-0.23 -0.82,-0.23 -0.52,0 -0.93,0.2 -1.24,0.59 -0.31,0.39 -0.46,0.95 -0.46,1.68 0,0.48 0.07,0.88 0.21,1.2 0.13,0.32 0.32,0.56 0.57,0.72 0.25,0.16 0.54,0.24 0.87,0.24 0.37,0 0.67,-0.09 0.92,-0.27 0.25,-0.18 0.44,-0.44 0.57,-0.79 0.05,-0.17 0.12,-0.3 0.2,-0.4 0.07,-0.11 0.2,-0.16 0.38,-0.16 0.15,0 0.28,0.05 0.38,0.16 0.11,0.1 0.16,0.23 0.16,0.39z"/>
    <path class="fil8 str0" d="M73.44 85.27l0 0.53c0.39,0.04 0.74,0.11 1.02,0.22 0.29,0.11 0.54,0.27 0.75,0.49 0.17,0.17 0.3,0.35 0.39,0.52 0.09,0.18 0.13,0.34 0.13,0.49 0,0.17 -0.06,0.31 -0.2,0.43 -0.14,0.12 -0.3,0.18 -0.49,0.18 -0.37,0 -0.61,-0.18 -0.72,-0.52 -0.12,-0.42 -0.41,-0.69 -0.88,-0.82l0 2.05c0.46,0.11 0.83,0.21 1.1,0.3 0.27,0.09 0.52,0.23 0.74,0.4 0.23,0.18 0.41,0.4 0.53,0.65 0.12,0.25 0.19,0.53 0.19,0.83 0,0.37 -0.1,0.72 -0.3,1.05 -0.2,0.33 -0.5,0.59 -0.88,0.8 -0.39,0.21 -0.85,0.33 -1.38,0.37l0 1.23c0,0.19 -0.03,0.33 -0.07,0.42 -0.04,0.09 -0.13,0.14 -0.28,0.14 -0.13,0 -0.23,-0.04 -0.28,-0.11 -0.06,-0.07 -0.08,-0.19 -0.08,-0.34l0 -1.33c-0.44,-0.04 -0.82,-0.13 -1.14,-0.27 -0.33,-0.14 -0.6,-0.31 -0.82,-0.52 -0.22,-0.2 -0.38,-0.42 -0.48,-0.64 -0.11,-0.22 -0.16,-0.44 -0.16,-0.65 0,-0.16 0.07,-0.3 0.21,-0.43 0.14,-0.12 0.31,-0.19 0.52,-0.19 0.17,0 0.31,0.04 0.43,0.11 0.11,0.06 0.19,0.16 0.24,0.29 0.1,0.27 0.18,0.47 0.26,0.62 0.07,0.14 0.19,0.27 0.34,0.39 0.15,0.12 0.35,0.21 0.6,0.27l0 -2.29c-0.5,-0.13 -0.92,-0.26 -1.25,-0.41 -0.34,-0.15 -0.61,-0.36 -0.82,-0.64 -0.21,-0.27 -0.31,-0.63 -0.31,-1.06 0,-0.57 0.2,-1.03 0.61,-1.39 0.41,-0.37 1,-0.58 1.77,-0.64l0 -0.52c0,-0.27 0.12,-0.41 0.35,-0.41 0.24,0 0.36,0.13 0.36,0.4zm-0.71 3.38l0 -1.88c-0.32,0.08 -0.56,0.19 -0.73,0.32 -0.18,0.14 -0.27,0.34 -0.27,0.61 0,0.26 0.08,0.46 0.25,0.59 0.16,0.14 0.41,0.26 0.75,0.36zm0.71 1.47l0 2.16c0.37,-0.07 0.66,-0.2 0.87,-0.4 0.2,-0.2 0.3,-0.43 0.3,-0.7 0,-0.29 -0.1,-0.51 -0.3,-0.66 -0.19,-0.16 -0.49,-0.29 -0.87,-0.4z"/>
    <g>
     <polygon class="fil8" points="90.46,25.04 90.46,36.01 88.32,36.01 88.32,25.04 "/>
    </g>
    <g>
     <polygon class="fil8" points="103.65,25.04 103.65,36.01 101.51,36.01 101.51,25.04 "/>
    </g>
    <path class="fil1" d="M159.75 126.38c-0.49,1.23 -0.97,2.46 -1.45,3.69 -0.12,0.31 -0.2,0.61 -0.34,0.93 -0.43,0.96 -1.16,1.69 -2.14,2.11 -1.68,0.72 -3.63,0.38 -4.92,-0.93 -0.84,-0.85 -1.91,-3.88 -2.36,-5.03 -1.14,-2.86 -2.25,-5.72 -3.36,-8.59 -1.92,-4.93 -3.79,-9.89 -5.74,-14.81 -1.04,-2.63 -3.26,-6.42 -0.79,-8.96 1.26,-1.29 2.99,-1.52 4.66,-1.02 0.63,0.19 1.12,0.46 1.72,0.69l8.19 3.2c3.87,1.51 7.76,2.99 11.63,4.5 2.35,0.91 4.69,1.83 7.02,2.77 1.19,0.48 3.63,1.3 4.48,2.26 1.34,1.52 1.43,3.97 0.19,5.58 -0.99,1.29 -4.04,2.23 -5.57,2.8 -0.22,0.08 -0.44,0.16 -0.65,0.25 0.93,0.93 1.87,1.87 2.81,2.8 1.5,1.5 3.91,3.33 4.2,5.53 0.34,2.61 -1.81,4.19 -3.43,5.82 -1.29,1.29 -2.66,3.06 -4.55,3.4 -2.37,0.43 -3.77,-1.2 -5.26,-2.68l-4.34 -4.31z"/>
    <path class="fil9" d="M158.61 120.67l7.77 7.72c2.58,2.58 2.07,2.44 5.22,-0.72 3.47,-3.48 3.47,-2.52 -0.76,-6.75 -2.11,-2.1 -4.15,-4.13 -6.24,-6.23 0.85,-0.71 8.95,-3.37 9.37,-3.9 0.27,-0.36 0.28,-1.07 -0.06,-1.45 -0.34,-0.4 -19.66,-7.8 -21.87,-8.66l-8.19 -3.19c-0.81,-0.31 -2.17,-1.16 -2.87,-0.44 -0.79,0.81 1.05,4.42 1.48,5.5 1.39,3.51 10.34,26.94 10.75,27.35 0.31,0.32 0.82,0.45 1.33,0.23 0.5,-0.22 0.49,-0.61 0.74,-1.25 0.4,-1.01 3.05,-7.85 3.33,-8.21z"/>
   </g>
  </g>
  <polygon class="fil10" points="0,0 192,0 192,192 0,192 "/>
 </g>
</svg>
